# xmcd
#
# Track frame offsets:
#	150
#	13891
#	28302
#	44850
#	66207
#	80188
#	97060
#	124167
#	146847
#	161174
#	178977
#	200795
#	224652
#	236717
#
# Disc length: 3335
#
# Revision: 2
# Processed by: cddbd v1.5.1PL0 Copyright (c) Steve Scherf et al.
# Submitted via: OrangeCD 5.1
# Normalized: r1:DSETVAR1
#
DISCID=f00d050e
DTITLE=Various Artist - No Song No Supper - Sugar Hill Singer Songwriters Dish It Up
DYEAR=2003
DGENRE=Singer Songwriter
TTITLE0=Scott Miller and The Commonwealth - Daddy Raised A Boy
TTITLE1=Townes Van Zandt - Waitin' Round To Die
TTITLE2=The Gourds - Ants on the Melon
TTITLE3=Guy Clark - Let Him Roll
TTITLE4=Jimmy Murphy - I Get A Longing To Hear Hank Sing The Blues
TTITLE5=Walter Hyatt - Teach Me About Love
TTITLE6=Terry Allen - Cortez Sail
TTITLE7=Darrell Scott - You'll Never Leave Harlan Alive
TTITLE8=Jesse Winchester - Sweet Loving Daddy
TTITLE9=Robert Earl Keen - I'll Go On Downtown
TTITLE10=Rodney Crowell - The Rock Of My Soul
TTITLE11=James McMurtry - Fast As I Can
TTITLE12=Peter Rowan - Before The Streets Were Paved
TTITLE13=Tim O'Brien w/ Hot Rize - Nellie Kane
EXTD=Singer Songwriter Stuff - Excellent
EXTT0=
EXTT1=
EXTT2=
EXTT3=
EXTT4=
EXTT5=
EXTT6=
EXTT7=
EXTT8=
EXTT9=
EXTT10=
EXTT11=
EXTT12=
EXTT13=
PLAYORDER=
